<?xml version="1.0" encoding="UTF-8"?> <svg xmlns="http://www.w3.org/2000/svg" id="whiteIcon" data-name="Layer 1" viewBox="0 0 202.41 40.94"><defs><style>.cls-1{fill:#fff;}</style></defs><g id="Group_4" data-name="Group 4"><g id="Group_2" data-name="Group 2"><g id="Group_1" data-name="Group 1"><path id="Path_1" data-name="Path 1" class="cls-1" d="M78.17,31.25v2.13H61.68V8.85H77.86V11H64.07v8.85h12v2h-12v9.37Z"></path><path id="Path_2" data-name="Path 2" class="cls-1" d="M82.7,8.85l8.78,21.53,8.71-21.53h2.56L92.51,33.38h-2.1L80.18,8.84Z"></path><path id="Path_3" data-name="Path 3" class="cls-1" d="M106.27,33.39V8.88h2.39V33.39Z"></path><path id="Path_4" data-name="Path 4" class="cls-1" d="M129,15.28a5.19,5.19,0,0,0-.88-.66,9.93,9.93,0,0,0-1.55-.81,14.15,14.15,0,0,0-2-.68,8.86,8.86,0,0,0-2.18-.27,4.91,4.91,0,0,0-2.94.72,2.43,2.43,0,0,0-1,2,2.22,2.22,0,0,0,.37,1.27,3.31,3.31,0,0,0,1,.88,9.1,9.1,0,0,0,1.75.69c.7.21,1.51.42,2.43.65,1.2.33,2.29.67,3.27,1a9.06,9.06,0,0,1,2.49,1.38,5.74,5.74,0,0,1,1.57,2,6.54,6.54,0,0,1,.56,2.85,7.14,7.14,0,0,1-.75,3.37,6.29,6.29,0,0,1-2,2.27,8.42,8.42,0,0,1-2.9,1.26,15,15,0,0,1-3.46.4,18.4,18.4,0,0,1-5.46-.83,16.71,16.71,0,0,1-4.84-2.35l2.11-4.11a7,7,0,0,0,1.12.81,17.48,17.48,0,0,0,1.92,1,15.07,15.07,0,0,0,2.45.84,10.84,10.84,0,0,0,2.77.35q3.94,0,3.94-2.52a2.13,2.13,0,0,0-.45-1.39,3.66,3.66,0,0,0-1.28-1,11.81,11.81,0,0,0-2-.77c-.78-.23-1.66-.47-2.63-.72A22.61,22.61,0,0,1,117.46,22a8.17,8.17,0,0,1-2.16-1.33,4.87,4.87,0,0,1-1.3-1.8,6.4,6.4,0,0,1-.43-2.45,7.76,7.76,0,0,1,.69-3.32,6.85,6.85,0,0,1,1.92-2.42A8.78,8.78,0,0,1,119,9.17a11.85,11.85,0,0,1,3.5-.5,13.86,13.86,0,0,1,4.77.81,18.08,18.08,0,0,1,3.8,1.92Z"></path><path id="Path_5" data-name="Path 5" class="cls-1" d="M145.78,33.56a10.58,10.58,0,0,1-4.73-1.05,11.72,11.72,0,0,1-3.68-2.8,12.53,12.53,0,0,1-2.37-4,13.17,13.17,0,0,1-.83-4.6,12.94,12.94,0,0,1,3.34-8.68,11.85,11.85,0,0,1,3.71-2.75,10.92,10.92,0,0,1,4.67-1,10.36,10.36,0,0,1,4.73,1.09,11.87,11.87,0,0,1,3.67,2.85,13.33,13.33,0,0,1,3.18,8.58,12.82,12.82,0,0,1-3.32,8.62,11.7,11.7,0,0,1-3.7,2.73A10.6,10.6,0,0,1,145.78,33.56ZM139,21.12a10.3,10.3,0,0,0,.47,3.07,8.42,8.42,0,0,0,1.35,2.63A6.68,6.68,0,0,0,143,28.65a6,6,0,0,0,2.9.69,5.83,5.83,0,0,0,2.92-.7,6.77,6.77,0,0,0,2.13-1.89,8.69,8.69,0,0,0,1.31-2.64,10.13,10.13,0,0,0,.45-3,10,10,0,0,0-.48-3.08,8.91,8.91,0,0,0-1.37-2.63,6.65,6.65,0,0,0-2.14-1.81,6.36,6.36,0,0,0-5.78,0,7.1,7.1,0,0,0-2.14,1.87,8.16,8.16,0,0,0-1.33,2.63,10.07,10.07,0,0,0-.44,3Z"></path><path id="Path_6" data-name="Path 6" class="cls-1" d="M161.17,33.38V8.85H172a7.06,7.06,0,0,1,3.13.7,8.23,8.23,0,0,1,2.47,1.87,9.05,9.05,0,0,1,1.63,2.63,7.87,7.87,0,0,1,.58,2.95,8.09,8.09,0,0,1-1.19,4.34,6.87,6.87,0,0,1-3.23,2.82l5.77,9.23h-5.39l-5.15-8.23h-4.7v8.22ZM165.94,21h6a2.36,2.36,0,0,0,1.22-.31,3.08,3.08,0,0,0,1-.84,4.34,4.34,0,0,0,.66-1.26A5.18,5.18,0,0,0,175,17a4.55,4.55,0,0,0-.28-1.59,4.1,4.1,0,0,0-.74-1.26,3.32,3.32,0,0,0-1.07-.83,3,3,0,0,0-1.23-.3h-5.77Z"></path><path id="Path_7" data-name="Path 7" class="cls-1" d="M202.23,13h-7.81V33.38h-4.77V13H181.8V8.84h20.43Z"></path></g></g><g id="Group_3" data-name="Group 3"><path id="Path_8" data-name="Path 8" class="cls-1" d="M3,9.38l2.92,10S0,17.06,0,14.39A5.83,5.83,0,0,1,3,9.38Z"></path><path id="Path_9" data-name="Path 9" class="cls-1" d="M12.88,1.05,15,9.17s-6.17.18-10.6-2C4.72,5.41,6.19,3.61,12.88,1.05Z"></path><path id="Path_10" data-name="Path 10" class="cls-1" d="M20,4.3,15.59,5.52l-1.06-4.3L18.91,0Z"></path><path id="Path_11" data-name="Path 11" class="cls-1" d="M23.2,6.23l-2.36.66-.57-2.32,2.36-.66Z"></path><path id="Path_12" data-name="Path 12" class="cls-1" d="M46.14,17.42l-7,1.94-1.67-6.83,6.94-1.93Z"></path><path id="Path_13" data-name="Path 13" class="cls-1" d="M49.45,19.41l-2.29.64-.55-2.25,2.29-.63Z"></path><path id="Path_14" data-name="Path 14" class="cls-1" d="M34.91,13.57l-3.17.89-.8-3.27L34,10.34c-.44-1.59-.83-3-1.12-4.17-18.79,6.12-28.46,1-28.46,1s1.63,5.41,2.7,9.89c4.62,2.64,17.72,0,17.72,0S28.75,29.52,30,34.28a24.77,24.77,0,0,0,10-3.27S37.16,21.45,34.91,13.57Zm-10.2,2.79L24.15,14l2.35-.65.57,2.31Zm3.77,3.91-1.11-4.53L32,14.46,33.09,19Zm3.32,3.62-.62-2.53,2.57-.72-.35-1.4,1.52-.42.37,1.49-1.51.42.6,2.44Z"></path><path id="Path_15" data-name="Path 15" class="cls-1" d="M25.31,24.61l-3.69,1L20.5,21.11l3.45-1-.4-1.31C4.41,23.54,0,15.21,0,15.21S4.62,30.37,7.19,37.27C16.08,43.17,30,40.19,30,40.19Zm-5,3.4L20,26.52l1.52-.42.36,1.49Z"></path><path id="Path_16" data-name="Path 16" class="cls-1" d="M49.08,8.74,44.3,10.07l-1.15-4.7L47.93,4Z"></path><path id="Path_17" data-name="Path 17" class="cls-1" d="M52,10.48l-2.08.58-.5-2,2.08-.58Z"></path></g></g></svg> 